<svg id="svg" version="1.1" xmlns="http://www.w3.org/2000/svg" xmlns:xlink="http://www.w3.org/1999/xlink" width="400" height="400" viewBox="0, 0, 400,400"><g id="svgg"><path id="path0" d="M64.603 146.750 C 63.643 157.007,69.823 168.615,79.844 175.374 C 82.777 177.352,82.500 177.442,82.500 174.509 L 82.500 172.028 82.042 171.669 C 81.706 171.406,81.784 171.427,82.333 171.748 C 82.746 171.989,83.952 172.622,85.013 173.154 L 86.944 174.123 87.132 173.686 C 87.236 173.446,87.418 173.103,87.536 172.923 C 88.142 171.998,88.500 171.313,88.500 171.077 C 88.500 170.932,88.567 170.855,88.648 170.905 C 88.729 170.955,88.898 170.870,89.023 170.716 C 89.191 170.509,89.195 170.469,89.036 170.565 C 88.864 170.668,88.825 170.077,88.841 167.574 C 88.852 165.732,88.795 164.412,88.700 164.352 C 88.612 164.296,86.839 162.600,84.761 160.583 C 82.682 158.567,80.219 156.185,79.286 155.291 L 77.590 153.666 76.997 154.291 C 76.267 155.061,74.101 157.789,73.324 158.917 C 73.008 159.375,72.708 159.787,72.656 159.833 C 72.605 159.879,72.235 160.420,71.834 161.035 L 71.105 162.153 70.689 161.535 C 70.461 161.195,70.211 160.892,70.136 160.861 C 70.060 160.830,70.040 160.736,70.092 160.652 C 70.144 160.569,70.114 160.500,70.026 160.500 C 69.869 160.500,69.341 159.676,68.530 158.167 C 67.502 156.251,66.997 155.148,66.582 153.917 C 66.335 153.183,66.068 152.433,65.989 152.250 C 65.640 151.443,65.309 149.730,64.863 146.417 L 64.728 145.417 64.603 146.750 M65.171 174.292 C 64.975 174.910,64.751 175.536,64.673 175.681 C 64.540 175.930,64.027 177.959,63.434 180.583 C 62.677 183.934,62.470 191.359,63.042 194.667 C 64.344 202.196,67.142 208.074,71.641 212.732 C 74.714 215.914,78.631 218.636,82.083 219.990 C 82.633 220.206,83.308 220.479,83.583 220.597 C 84.252 220.884,86.147 221.421,87.583 221.730 C 88.225 221.867,88.938 222.024,89.167 222.078 C 89.566 222.172,89.567 222.169,89.208 222.010 L 88.833 221.844 88.833 210.582 L 88.833 199.319 87.458 197.943 C 86.000 196.482,85.001 194.786,84.416 192.773 C 84.166 191.912,84.080 191.809,83.198 191.315 C 75.341 186.908,69.422 181.028,66.316 174.542 C 65.525 172.891,65.609 172.909,65.171 174.292 M206.875 215.813 C 203.059 217.131,203.591 221.270,207.796 222.975 C 209.391 223.622,210.110 224.185,210.322 224.951 C 210.933 227.164,208.216 228.477,205.550 227.256 C 205.042 227.024,204.608 226.833,204.585 226.833 C 204.562 226.833,204.447 227.176,204.330 227.594 C 204.060 228.561,204.203 228.722,205.667 229.097 C 208.535 229.832,211.401 228.843,212.067 226.889 C 212.961 224.266,211.642 222.262,208.312 221.183 C 206.702 220.662,205.932 219.196,206.658 218.038 C 207.228 217.128,208.907 216.849,210.502 217.399 C 211.367 217.697,211.439 217.665,211.654 216.885 C 211.867 216.115,211.825 216.060,210.796 215.754 C 209.653 215.415,207.954 215.441,206.875 215.813 M174.667 222.417 L 174.667 229.167 175.583 229.167 L 176.500 229.167 176.500 222.417 L 176.500 215.667 175.583 215.667 L 174.667 215.667 174.667 222.417 M185.500 222.417 L 185.500 229.167 186.425 229.167 L 187.350 229.167 187.300 223.750 C 187.273 220.771,187.267 218.333,187.289 218.333 C 187.310 218.333,187.526 218.727,187.768 219.208 C 188.207 220.080,189.260 221.866,190.018 223.026 C 190.237 223.361,190.662 224.036,190.961 224.526 C 191.260 225.016,192.019 226.242,192.647 227.250 L 193.788 229.083 194.811 229.133 L 195.833 229.183 195.833 222.425 L 195.833 215.667 194.904 215.667 L 193.975 215.667 194.029 220.917 C 194.059 223.804,194.066 226.167,194.044 226.167 C 194.022 226.167,193.740 225.660,193.418 225.042 C 193.095 224.423,192.738 223.769,192.624 223.589 C 192.510 223.409,192.112 222.771,191.739 222.172 C 190.756 220.593,189.364 218.378,188.753 217.417 C 188.461 216.958,188.095 216.377,187.941 216.125 C 187.680 215.701,187.578 215.667,186.579 215.667 L 185.500 215.667 185.500 222.417 M219.333 216.500 L 219.333 217.333 221.333 217.333 L 223.333 217.333 223.333 223.250 L 223.333 229.167 224.250 229.167 L 225.167 229.167 225.167 223.250 L 225.167 217.333 227.250 217.333 L 229.333 217.333 229.333 216.500 L 229.333 215.667 224.333 215.667 L 219.333 215.667 219.333 216.500 M236.833 222.417 L 236.833 229.167 237.750 229.167 L 238.667 229.167 238.667 222.417 L 238.667 215.667 237.750 215.667 L 236.833 215.667 236.833 222.417 M246.333 216.500 L 246.333 217.333 248.333 217.333 L 250.333 217.333 250.333 223.250 L 250.333 229.167 251.250 229.167 L 252.167 229.167 252.167 223.250 L 252.167 217.333 254.250 217.333 L 256.333 217.333 256.333 216.500 L 256.333 215.667 251.333 215.667 L 246.333 215.667 246.333 216.500 M263.864 220.792 L 263.917 225.917 264.386 226.872 C 265.779 229.709,269.924 230.264,272.261 227.928 C 273.602 226.587,273.667 226.242,273.667 220.470 L 273.667 215.667 272.750 215.667 L 271.833 215.667 271.833 220.176 C 271.833 225.256,271.750 225.820,270.859 226.805 C 269.463 228.347,267.205 228.009,266.202 226.108 L 265.750 225.250 265.699 220.458 L 265.648 215.667 264.730 215.667 L 263.812 215.667 263.864 220.792 M281.333 216.500 L 281.333 217.333 283.333 217.333 L 285.333 217.333 285.333 223.250 L 285.333 229.167 286.250 229.167 L 287.167 229.167 287.167 223.250 L 287.167 217.333 289.250 217.333 L 291.333 217.333 291.333 216.500 L 291.333 215.667 286.333 215.667 L 281.333 215.667 281.333 216.500 M298.833 222.417 L 298.833 229.167 302.667 229.167 L 306.500 229.167 306.500 228.333 L 306.500 227.500 303.667 227.500 L 300.833 227.500 300.833 225.167 L 300.833 222.833 303.333 222.833 L 305.833 222.833 305.833 222.083 L 305.833 221.333 303.333 221.333 L 300.833 221.333 300.833 219.333 L 300.833 217.333 303.500 217.333 L 306.167 217.333 306.167 216.500 L 306.167 215.667 302.500 215.667 L 298.833 215.667 298.833 222.417 M137.667 227.689 C 136.612 228.144,134.925 228.861,133.917 229.281 C 132.908 229.702,131.596 230.257,131.000 230.515 C 130.404 230.773,128.192 231.709,126.083 232.593 C 123.975 233.478,121.678 234.457,120.979 234.768 C 120.280 235.079,119.663 235.333,119.609 235.333 C 119.554 235.333,119.113 235.518,118.630 235.743 C 118.146 235.969,117.112 236.413,116.333 236.731 C 114.342 237.544,112.569 238.287,111.947 238.570 C 111.655 238.702,110.217 239.312,108.750 239.925 C 107.283 240.538,105.777 241.177,105.403 241.344 C 105.029 241.512,104.323 241.807,103.833 242.000 C 103.344 242.193,102.631 242.493,102.250 242.667 C 101.869 242.840,101.156 243.140,100.667 243.333 C 100.177 243.526,99.465 243.826,99.083 244.000 C 98.702 244.174,97.985 244.476,97.489 244.671 C 96.994 244.866,96.213 245.196,95.753 245.404 C 95.293 245.612,94.560 245.916,94.125 246.080 C 93.015 246.499,93.114 246.598,94.958 246.916 C 95.852 247.070,96.808 247.261,97.083 247.340 C 100.019 248.187,109.567 248.123,113.583 247.229 C 116.084 246.673,118.233 246.129,118.486 245.989 C 118.631 245.908,119.350 245.644,120.083 245.402 C 125.163 243.728,131.898 239.060,135.091 235.000 C 136.799 232.829,138.406 230.121,139.516 227.542 C 139.885 226.687,140.012 226.677,137.667 227.689 " stroke="none" fill="#259411" fill-rule="evenodd"></path><path id="path1" d="M74.083 170.833 C 74.535 171.292,74.942 171.667,74.987 171.667 C 75.033 171.667,74.701 171.292,74.250 170.833 C 73.799 170.375,73.392 170.000,73.346 170.000 C 73.300 170.000,73.632 170.375,74.083 170.833 M92.667 176.429 C 92.667 176.542,93.532 176.856,93.615 176.774 C 93.653 176.736,93.455 176.625,93.175 176.528 C 92.895 176.430,92.667 176.386,92.667 176.429 M140.333 207.130 C 140.012 207.282,139.731 207.415,139.708 207.426 C 139.685 207.436,139.819 207.889,140.007 208.431 C 140.531 209.946,141.364 213.158,141.290 213.379 C 141.254 213.488,140.834 212.566,140.356 211.330 C 139.879 210.094,139.365 208.780,139.214 208.409 L 138.941 207.735 136.512 208.766 C 135.176 209.333,133.146 210.188,132.000 210.667 C 130.854 211.145,129.429 211.745,128.833 212.000 C 128.237 212.255,126.813 212.854,125.667 213.332 C 124.521 213.810,123.011 214.456,122.312 214.767 C 121.613 215.078,120.907 215.333,120.743 215.333 C 120.579 215.333,120.487 215.376,120.538 215.427 C 120.837 215.726,119.710 219.158,118.878 220.483 C 115.536 225.809,105.865 228.875,97.500 227.263 C 97.271 227.219,96.446 227.057,95.667 226.903 L 94.250 226.624 91.167 227.924 C 89.471 228.640,87.415 229.501,86.599 229.839 C 85.430 230.322,85.058 230.559,84.849 230.955 C 84.275 232.042,83.416 233.646,80.100 239.820 C 79.587 240.775,79.186 241.572,79.209 241.591 C 79.913 242.183,86.502 244.706,90.030 245.736 C 92.291 246.395,92.417 246.385,94.709 245.357 C 95.098 245.182,96.617 244.538,98.083 243.925 C 99.550 243.312,100.988 242.702,101.280 242.570 C 101.899 242.288,103.664 241.548,105.667 240.731 C 106.446 240.413,107.322 240.042,107.613 239.907 C 107.905 239.772,108.692 239.432,109.363 239.151 C 110.034 238.870,111.277 238.346,112.125 237.987 C 113.835 237.262,115.899 236.392,118.417 235.333 C 119.333 234.948,120.777 234.340,121.625 233.983 C 122.473 233.626,123.879 233.033,124.750 232.667 C 125.621 232.300,127.027 231.706,127.875 231.347 C 128.723 230.988,129.966 230.464,130.637 230.182 C 131.308 229.901,132.095 229.561,132.387 229.426 C 132.678 229.291,133.554 228.921,134.333 228.602 C 136.246 227.821,137.927 227.116,138.833 226.715 C 139.246 226.532,139.697 226.343,139.836 226.295 C 140.437 226.086,141.515 221.620,141.907 217.708 C 142.233 214.454,141.808 209.542,141.021 207.472 C 140.929 207.231,140.900 206.989,140.955 206.934 C 141.103 206.786,140.981 206.824,140.333 207.130 " stroke="none" fill="#155004" fill-rule="evenodd"></path><path id="path2" d="M64.500 145.094 C 64.500 145.146,64.314 145.915,64.087 146.802 C 62.819 151.753,62.598 153.431,62.600 158.083 C 62.602 163.456,64.089 171.052,65.503 172.917 C 65.573 173.008,66.042 173.883,66.545 174.859 C 69.847 181.263,75.054 186.523,82.142 190.615 C 83.210 191.231,84.124 191.792,84.174 191.863 C 84.307 192.051,88.591 194.076,90.110 194.667 C 90.828 194.947,91.567 195.248,91.750 195.335 C 92.386 195.637,97.256 197.279,98.417 197.583 C 99.058 197.751,99.658 197.941,99.750 198.006 C 99.842 198.070,100.793 198.335,101.865 198.593 C 102.937 198.852,103.780 199.117,103.740 199.183 C 103.699 199.249,103.815 199.263,103.998 199.216 C 104.180 199.168,104.949 199.293,105.706 199.494 C 116.313 202.304,120.183 205.929,120.610 213.458 C 120.669 214.493,120.789 215.333,120.879 215.333 C 120.968 215.333,121.613 215.078,122.312 214.767 C 123.011 214.456,124.521 213.810,125.667 213.332 C 126.813 212.854,128.237 212.255,128.833 212.000 C 129.429 211.745,130.817 211.160,131.917 210.700 C 137.067 208.546,138.833 207.792,138.833 207.749 C 138.833 206.872,135.825 201.492,134.081 199.250 C 129.765 193.701,125.704 191.641,110.583 187.330 C 101.388 184.709,93.967 182.334,89.667 180.636 C 73.715 174.336,64.623 162.518,64.590 148.042 C 64.586 146.369,64.565 145.000,64.542 145.000 C 64.519 145.000,64.500 145.042,64.500 145.094 M132.784 193.167 C 134.568 195.184,137.085 200.165,139.084 205.638 C 139.656 207.201,139.746 207.350,140.065 207.247 C 140.258 207.185,140.540 207.126,140.691 207.115 C 140.914 207.099,140.935 207.017,140.804 206.673 C 140.716 206.440,140.653 206.250,140.666 206.250 C 140.917 206.250,138.377 200.130,138.002 199.833 C 137.944 199.787,137.616 199.262,137.273 198.667 C 136.195 196.794,135.254 195.585,133.511 193.833 C 132.827 193.146,132.500 192.846,132.784 193.167 M87.921 225.227 C 87.651 225.790,87.382 226.287,87.322 226.333 C 87.261 226.379,86.963 226.942,86.657 227.583 C 86.352 228.225,86.061 228.787,86.010 228.833 C 85.792 229.028,85.326 230.000,85.449 230.003 C 85.523 230.004,85.471 230.078,85.333 230.167 C 84.829 230.493,85.463 230.319,86.756 229.777 C 87.486 229.472,89.488 228.632,91.205 227.911 L 94.326 226.601 93.455 226.321 C 92.351 225.965,89.645 224.856,89.414 224.664 C 88.696 224.069,88.428 224.170,87.921 225.227 " stroke="none" fill="#040504" fill-rule="evenodd"></path><path id="path3" d="M148.323 159.012 C 142.018 159.681,135.096 162.531,130.055 166.532 C 129.673 166.835,128.942 167.404,128.430 167.797 C 126.016 169.649,120.622 175.502,118.492 178.581 C 118.175 179.038,117.820 179.515,117.701 179.642 C 117.583 179.768,117.025 180.575,116.462 181.435 C 115.898 182.296,115.395 182.999,115.344 182.997 C 115.292 182.995,114.500 182.764,113.583 182.483 C 110.561 181.556,107.453 180.668,104.917 180.008 C 103.542 179.650,101.870 179.196,101.201 179.000 C 100.533 178.804,99.896 178.675,99.785 178.713 C 99.674 178.752,99.827 178.838,100.125 178.905 L 100.667 179.026 100.667 181.731 L 100.667 184.436 102.208 184.894 C 103.056 185.146,106.487 186.139,109.833 187.102 C 130.972 193.183,134.477 195.978,140.427 211.497 C 141.312 213.806,141.534 213.927,140.996 211.809 C 139.198 204.731,135.451 196.306,132.638 193.020 C 131.586 191.791,131.453 192.125,135.277 186.417 C 137.600 182.950,139.504 180.417,140.917 178.916 C 143.998 175.643,145.892 173.898,148.415 172.009 C 149.280 171.363,150.025 170.833,150.072 170.833 C 150.118 170.833,150.665 170.505,151.286 170.103 C 154.322 168.143,158.268 166.595,162.500 165.706 C 165.031 165.173,172.821 165.386,174.032 166.020 C 175.014 166.535,174.228 165.718,172.991 164.938 C 165.891 160.463,156.317 158.163,148.323 159.012 M180.667 183.773 C 177.056 184.498,175.099 186.654,175.090 189.917 C 175.083 192.720,176.927 194.886,180.341 196.085 C 184.341 197.489,186.019 199.713,184.945 202.185 C 183.878 204.642,179.642 205.238,176.129 203.426 C 175.221 202.958,175.287 202.905,174.850 204.482 L 174.514 205.692 175.410 206.102 C 178.375 207.459,183.273 207.306,185.565 205.784 C 187.391 204.572,188.157 203.200,188.289 200.907 C 188.504 197.151,187.215 195.731,181.333 193.245 C 178.487 192.042,177.420 189.813,178.737 187.823 C 179.771 186.261,183.032 185.813,185.636 186.874 C 186.356 187.168,186.709 187.242,186.754 187.110 C 187.076 186.155,187.500 184.832,187.500 184.781 C 187.500 184.681,186.319 184.200,185.583 183.999 C 184.856 183.800,181.336 183.639,180.667 183.773 M192.333 195.333 L 192.333 206.667 193.833 206.667 L 195.333 206.667 195.338 202.375 L 195.342 198.083 196.383 196.938 L 197.425 195.793 201.063 201.230 L 204.702 206.667 206.524 206.667 L 208.345 206.667 208.148 206.292 C 208.039 206.085,207.635 205.467,207.251 204.917 C 206.866 204.367,205.616 202.529,204.472 200.833 C 203.328 199.137,201.769 196.835,201.008 195.716 L 199.625 193.683 201.104 191.956 C 201.918 191.006,202.921 189.827,203.333 189.335 C 203.746 188.843,204.890 187.500,205.875 186.350 C 208.053 183.809,208.059 183.998,205.792 184.007 L 203.917 184.015 202.500 185.779 C 201.721 186.749,200.183 188.652,199.083 190.006 C 197.983 191.360,196.821 192.816,196.500 193.240 C 195.210 194.946,195.345 195.397,195.339 189.375 L 195.333 184.000 193.833 184.000 L 192.333 184.000 192.333 195.333 M210.500 195.333 L 210.500 206.667 212.000 206.667 L 213.500 206.667 213.500 195.333 L 213.500 184.000 212.000 184.000 L 210.500 184.000 210.500 195.333 M218.500 195.333 L 218.500 206.667 224.833 206.667 L 231.167 206.667 231.167 205.417 L 231.167 204.167 226.333 204.167 L 221.500 204.167 221.500 194.083 L 221.500 184.000 220.000 184.000 L 218.500 184.000 218.500 195.333 M234.333 195.333 L 234.333 206.667 240.667 206.667 L 247.000 206.667 247.000 205.417 L 247.000 204.167 242.167 204.167 L 237.333 204.167 237.333 194.083 L 237.333 184.000 235.833 184.000 L 234.333 184.000 234.333 195.333 M253.905 184.375 C 254.006 184.717,255.671 191.250,257.358 197.917 C 257.729 199.383,258.330 201.746,258.694 203.167 C 259.058 204.588,259.397 205.956,259.447 206.208 L 259.538 206.667 261.179 206.667 L 262.820 206.667 263.001 205.958 C 263.101 205.569,263.250 205.063,263.333 204.833 C 263.415 204.604,263.795 203.254,264.176 201.833 C 264.557 200.412,265.123 198.313,265.433 197.167 C 266.517 193.162,266.970 191.404,267.345 189.752 L 267.723 188.088 268.003 189.752 C 268.157 190.668,268.519 192.392,268.809 193.583 C 269.099 194.775,269.488 196.387,269.674 197.167 C 269.861 197.946,270.312 199.821,270.678 201.333 C 271.043 202.846,271.476 204.646,271.640 205.333 L 271.937 206.583 273.495 206.632 C 275.394 206.690,275.179 206.923,276.012 203.915 C 276.393 202.541,277.004 200.367,277.369 199.083 C 278.667 194.529,279.364 192.058,279.910 190.083 C 280.214 188.983,280.696 187.305,280.981 186.353 C 281.734 183.841,281.794 183.978,279.969 184.035 L 278.438 184.083 278.212 184.917 C 277.317 188.213,274.505 199.287,274.070 201.221 C 273.741 202.689,273.635 202.632,273.352 200.833 C 273.131 199.431,272.415 196.346,269.957 186.208 L 269.422 184.000 267.814 184.000 C 266.282 184.000,266.201 184.018,266.121 184.375 C 266.074 184.581,265.684 186.063,265.254 187.667 C 264.824 189.271,264.258 191.408,263.996 192.417 C 263.734 193.425,263.168 195.600,262.740 197.250 C 262.311 198.900,261.836 200.841,261.685 201.562 L 261.411 202.874 261.045 201.062 C 260.602 198.870,259.845 195.486,259.167 192.667 C 258.290 189.019,257.366 185.101,257.251 184.542 L 257.140 184.000 255.467 184.000 C 253.811 184.000,253.796 184.004,253.905 184.375 M286.421 189.375 C 285.421 192.331,284.012 196.475,283.290 198.583 C 282.568 200.692,281.936 202.548,281.886 202.708 C 281.836 202.868,281.519 203.824,281.181 204.833 L 280.568 206.667 282.185 206.667 L 283.803 206.667 284.943 203.208 L 286.083 199.750 290.027 199.705 L 293.971 199.661 294.433 201.039 C 294.688 201.797,295.209 203.354,295.591 204.500 L 296.287 206.583 297.997 206.631 C 299.582 206.675,299.698 206.657,299.590 206.381 C 299.413 205.932,298.064 202.001,297.342 199.833 C 296.991 198.779,295.787 195.254,294.667 192.000 C 293.547 188.746,292.481 185.615,292.298 185.042 L 291.966 184.000 290.103 184.000 L 288.239 184.000 286.421 189.375 M298.667 184.241 C 298.667 184.374,298.884 185.105,299.149 185.866 C 299.414 186.627,300.322 189.387,301.165 192.000 C 302.009 194.612,303.171 198.175,303.748 199.917 C 304.324 201.658,305.036 203.871,305.330 204.833 C 305.996 207.011,305.802 206.861,307.753 206.710 L 309.402 206.583 309.707 205.750 C 309.875 205.292,310.305 204.092,310.663 203.083 C 311.021 202.075,311.625 200.387,312.006 199.333 C 312.387 198.279,312.953 196.667,313.265 195.750 C 313.576 194.833,313.905 193.933,313.994 193.750 C 314.084 193.567,314.652 191.992,315.255 190.250 C 315.859 188.508,316.574 186.505,316.843 185.797 C 317.565 183.903,317.614 183.980,315.718 184.036 L 314.103 184.083 313.133 186.917 C 311.036 193.042,308.349 201.122,308.171 201.833 C 307.787 203.369,307.920 203.596,306.761 199.417 C 306.431 198.225,306.091 197.100,306.005 196.917 C 305.920 196.733,305.577 195.683,305.244 194.583 C 304.910 193.483,304.350 191.683,304.000 190.583 C 303.650 189.483,303.085 187.683,302.746 186.583 C 301.881 183.777,302.097 184.000,300.244 184.000 C 298.978 184.000,298.667 184.048,298.667 184.241 M319.833 195.333 L 319.833 206.667 326.167 206.667 L 332.500 206.667 332.500 205.417 L 332.500 204.167 327.667 204.167 L 322.833 204.167 322.833 200.167 L 322.833 196.167 327.250 196.167 L 331.667 196.167 331.667 194.917 L 331.667 193.667 327.250 193.667 L 322.833 193.667 322.833 190.167 L 322.833 186.667 327.500 186.667 L 332.167 186.667 332.167 185.333 L 332.167 184.000 326.000 184.000 L 319.833 184.000 319.833 195.333 M292.078 193.662 C 292.677 195.356,293.167 196.837,293.167 196.954 C 293.167 197.119,292.456 197.167,289.989 197.167 L 286.811 197.167 286.921 196.792 C 286.982 196.585,287.478 195.116,288.024 193.525 C 288.570 191.935,289.205 189.910,289.434 189.025 C 289.664 188.141,289.891 187.304,289.938 187.167 C 289.986 187.029,290.242 187.742,290.507 188.750 C 290.772 189.758,291.479 191.969,292.078 193.662 M115.129 208.845 C 115.167 213.488,115.215 214.471,115.399 214.400 C 115.781 214.254,120.000 209.836,120.000 209.582 C 120.000 208.281,117.544 204.956,115.516 203.511 L 115.083 203.203 115.129 208.845 " stroke="none" fill="#044463" fill-rule="evenodd"></path><path id="path4" d="M88.851 167.615 L 88.841 170.750 89.296 170.173 C 89.546 169.855,90.191 169.079,90.731 168.447 L 91.711 167.300 90.286 165.890 L 88.860 164.481 88.851 167.615 M82.041 171.691 L 82.499 172.083 82.541 174.649 L 82.583 177.214 84.083 178.022 C 87.505 179.863,93.969 182.351,99.542 183.973 L 100.667 184.301 100.667 181.678 L 100.667 179.056 98.375 178.329 C 97.115 177.929,96.046 177.592,96.000 177.581 C 95.257 177.400,92.863 176.585,92.708 176.460 C 92.594 176.368,92.500 176.348,92.500 176.417 C 92.500 176.485,92.406 176.467,92.292 176.376 C 92.177 176.285,91.671 176.078,91.167 175.916 C 90.662 175.755,90.100 175.541,89.917 175.442 C 89.733 175.343,89.546 175.254,89.500 175.244 C 88.978 175.130,83.681 172.543,82.333 171.743 C 81.649 171.337,81.624 171.332,82.041 171.691 M88.833 210.474 L 88.917 221.902 89.667 222.141 C 90.625 222.445,97.267 222.492,98.750 222.205 C 105.542 220.888,110.687 218.550,114.708 214.954 L 115.167 214.545 115.167 208.945 L 115.167 203.345 113.875 202.590 C 112.205 201.615,109.880 200.717,106.706 199.822 L 104.161 199.104 103.539 199.474 C 98.789 202.298,92.991 202.282,89.258 199.434 L 88.750 199.046 88.833 210.474 M139.152 226.560 C 138.738 226.776,138.336 226.947,134.583 228.496 C 133.667 228.875,132.678 229.294,132.387 229.428 C 132.095 229.562,131.308 229.901,130.637 230.182 C 129.966 230.464,128.723 230.988,127.875 231.347 C 127.027 231.706,125.602 232.308,124.708 232.684 C 123.815 233.060,122.371 233.667,121.500 234.034 C 120.629 234.401,119.204 235.001,118.333 235.367 C 115.984 236.357,113.943 237.218,112.167 237.970 C 111.296 238.338,110.034 238.870,109.363 239.151 C 108.692 239.432,107.905 239.772,107.613 239.907 C 107.322 240.042,106.446 240.413,105.667 240.731 C 103.664 241.548,101.899 242.288,101.280 242.570 C 100.988 242.702,99.550 243.312,98.083 243.925 C 96.617 244.538,95.117 245.173,94.750 245.336 C 93.335 245.965,92.780 246.167,92.438 246.178 C 92.099 246.190,92.097 246.196,92.411 246.318 C 92.967 246.536,93.776 246.309,95.917 245.333 C 96.298 245.160,97.011 244.860,97.500 244.667 C 97.989 244.474,98.702 244.174,99.083 244.000 C 99.465 243.826,100.177 243.526,100.667 243.333 C 101.156 243.140,101.869 242.840,102.250 242.667 C 102.631 242.493,103.344 242.193,103.833 242.000 C 104.323 241.807,105.029 241.512,105.403 241.344 C 105.777 241.177,107.283 240.538,108.750 239.925 C 110.217 239.312,111.655 238.702,111.947 238.570 C 112.569 238.287,114.342 237.544,116.333 236.731 C 117.112 236.413,118.146 235.969,118.630 235.743 C 119.113 235.518,119.554 235.333,119.609 235.333 C 119.663 235.333,120.280 235.079,120.979 234.768 C 121.678 234.457,123.975 233.479,126.083 232.596 C 128.192 231.712,130.329 230.807,130.833 230.584 C 131.337 230.361,132.762 229.758,134.000 229.244 C 138.763 227.264,139.824 226.787,139.746 226.660 C 139.701 226.588,139.759 226.490,139.874 226.444 C 140.018 226.386,140.006 226.356,139.833 226.348 C 139.696 226.341,139.389 226.437,139.152 226.560 " stroke="none" fill="#146c3b" fill-rule="evenodd"></path></g></svg>